<svg width="285" height="334" xmlns="http://www.w3.org/2000/svg" xmlns:xlink="http://www.w3.org/1999/xlink" xml:space="preserve" overflow="hidden"><defs><clipPath id="clip0"><rect x="1892" y="866" width="285" height="334"/></clipPath></defs><g clip-path="url(#clip0)" transform="translate(-1892 -866)"><path d="M1894 1198C1894 1141.67 1956.68 1096 2034 1096 2111.06 1096 2173.63 1141.37 2174 1197.51L2142.3 1197.62C2141.98 1158.8 2093.23 1127.49 2033.42 1127.7 1973.83 1127.91 1925.7 1159.32 1925.7 1198Z" fill="#000000" fill-rule="evenodd" fill-opacity="1"/><path d="M1923 971.5C1923 915.443 1972.92 870 2034.5 870 2096.08 870 2146 915.443 2146 971.5 2146 1027.56 2096.08 1073 2034.5 1073 1972.92 1073 1923 1027.56 1923 971.5ZM1949.01 971.5C1949.01 1013.19 1987.29 1046.99 2034.5 1046.99 2081.71 1046.99 2119.99 1013.19 2119.99 971.5 2119.99 929.808 2081.71 896.011 2034.5 896.011 1987.29 896.011 1949.01 929.808 1949.01 971.5Z" fill="#000000" fill-rule="evenodd" fill-opacity="1"/></g></svg>