<svg width="206" height="165" xmlns="http://www.w3.org/2000/svg" xmlns:xlink="http://www.w3.org/1999/xlink" xml:space="preserve" overflow="hidden"><defs><clipPath id="clip0"><rect x="1920" y="866" width="206" height="165"/></clipPath></defs><g clip-path="url(#clip0)" transform="translate(-1920 -866)"><path d="M1923 935C1923 899.102 1952.1 870 1988 870 2023.9 870 2053 899.102 2053 935 2053 970.898 2023.9 1000 1988 1000 1952.1 1000 1923 970.898 1923 935ZM1939.66 935C1939.66 961.699 1961.3 983.343 1988 983.343 2014.7 983.343 2036.34 961.699 2036.34 935 2036.34 908.301 2014.7 886.657 1988 886.657 1961.3 886.657 1939.66 908.301 1939.66 935Z" fill="#000000" fill-rule="evenodd" fill-opacity="1"/><path d="M2035.4 956.137C2036.66 954.036 2039.38 953.351 2041.48 954.607L2122.87 1003.27C2124.97 1004.52 2125.65 1007.25 2124.4 1009.35L2115.3 1024.57C2114.04 1026.67 2111.32 1027.35 2109.22 1026.1L2027.83 977.437C2025.73 976.18 2025.04 973.458 2026.3 971.357Z" fill="#000000" fill-rule="evenodd" fill-opacity="1"/></g></svg>